<?xml version="1.0" encoding="UTF-8"?>
<svg version="1.1" xmlns="http://www.w3.org/2000/svg" width="500" height="500">
<path d="M0 0 C2.22578826 1.69744458 4.36736565 3.46639217 6.5078125 5.26953125 C7.08789062 5.69363281 7.66796875 6.11773437 8.265625 6.5546875 C22.05475506 17.0408399 30.08058004 35.55219243 32.5078125 52.26953125 C34.50724928 73.08472047 29.62454928 92.95553601 16.62890625 109.55395508 C4.87457965 123.72570462 -11.31705955 133.0834064 -29.4921875 136.26953125 C-51.31412605 137.79458479 -70.85551297 134.84325628 -88.4296875 120.76953125 C-90.13054525 119.28469485 -91.81957107 117.78610981 -93.4921875 116.26953125 C-94.44158203 115.47675781 -94.44158203 115.47675781 -95.41015625 114.66796875 C-106.7693643 104.53046042 -114.56562202 86.72538622 -115.68505859 71.67675781 C-116.38224966 47.73563912 -112.62008836 29.75140581 -96.4921875 11.26953125 C-95.97269531 10.65464844 -95.45320313 10.03976563 -94.91796875 9.40625 C-71.62626783 -16.11488324 -27.86337339 -19.34713858 0 0 Z M-27.125 20.69140625 C-28.19754028 21.47862061 -28.19754028 21.47862061 -29.29174805 22.28173828 C-30.44284058 23.1419458 -30.44284058 23.1419458 -31.6171875 24.01953125 C-33.25064456 25.22094658 -34.88477502 26.4214468 -36.51953125 27.62109375 C-37.76452393 28.53810059 -37.76452393 28.53810059 -39.03466797 29.47363281 C-42.71524854 32.16331597 -46.44593873 34.77943577 -50.1796875 37.39453125 C-55.77446576 41.32978612 -61.34103742 45.30087503 -66.8671875 49.33203125 C-67.49197998 49.78529785 -68.11677246 50.23856445 -68.76049805 50.70556641 C-72.92069507 53.66503117 -72.92069507 53.66503117 -76.4921875 57.26953125 C-76.41611914 59.40756179 -76.41611914 59.40756179 -75.4921875 61.26953125 C-72.32757135 62.85183933 -68.90139383 62.51110938 -65.421875 62.5859375 C-64.62564728 62.6067186 -63.82941956 62.62749969 -63.00906372 62.64891052 C-60.46186065 62.71437274 -57.91455325 62.7732754 -55.3671875 62.83203125 C-53.64191623 62.87521965 -51.91665557 62.91883404 -50.19140625 62.96289062 C-45.95844065 63.0700507 -41.72536997 63.17132748 -37.4921875 63.26953125 C-38.78019206 63.66658529 -40.06819661 64.06363932 -41.35620117 64.46069336 C-42.49610001 64.81355911 -42.49610001 64.81355911 -43.6590271 65.17355347 C-45.23909982 65.65845909 -46.82400184 66.12769637 -48.41137695 66.58813477 C-52.30727932 67.87849441 -54.08646849 68.6140716 -56.30078125 72.19140625 C-56.73361394 73.53983971 -57.12521013 74.9017065 -57.4921875 76.26953125 C-57.78456299 77.20788818 -58.07693848 78.14624512 -58.37817383 79.11303711 C-59.38247028 82.3818495 -60.31784524 85.66477516 -61.2421875 88.95703125 C-61.73525391 90.64795898 -61.73525391 90.64795898 -62.23828125 92.37304688 C-62.54378906 93.45650391 -62.84929688 94.53996094 -63.1640625 95.65625 C-63.4434668 96.63811279 -63.72287109 97.61997559 -64.01074219 98.6315918 C-64.49432358 101.28123528 -64.37959361 102.75930164 -63.4921875 105.26953125 C-61.68096681 105.99489223 -61.68096681 105.99489223 -59.4921875 106.26953125 C-57.57020809 105.41293041 -57.57020809 105.41293041 -55.76171875 103.9453125 C-54.69425415 103.15338501 -54.69425415 103.15338501 -53.60522461 102.34545898 C-52.84604736 101.76352783 -52.08687012 101.18159668 -51.3046875 100.58203125 C-49.67779531 99.37013737 -48.05017418 98.15922153 -46.421875 96.94921875 C-45.1858252 96.02254395 -45.1858252 96.02254395 -43.92480469 95.07714844 C-40.30559582 92.38780455 -36.6208502 89.79620593 -32.9296875 87.20703125 C-32.24567871 86.72129639 -31.56166992 86.23556152 -30.85693359 85.73510742 C-27.16007023 83.11386062 -23.43212461 80.5570481 -19.6484375 78.0625 C-18.85896729 77.53213135 -18.06949707 77.0017627 -17.25610352 76.45532227 C-15.73915332 75.43760135 -14.21130649 74.43588276 -12.67163086 73.45288086 C-10.7523676 72.15280821 -9.06661165 70.97151696 -7.4921875 69.26953125 C-6.86828608 66.02951437 -6.86828608 66.02951437 -7.4921875 63.26953125 C-9.84157638 62.09483681 -11.44291955 62.06918236 -14.0625 61.953125 C-15.40634766 61.8902832 -15.40634766 61.8902832 -16.77734375 61.82617188 C-17.71449219 61.78685547 -18.65164062 61.74753906 -19.6171875 61.70703125 C-21.03451172 61.64225586 -21.03451172 61.64225586 -22.48046875 61.57617188 C-24.81755842 61.46994053 -27.1547558 61.36789949 -29.4921875 61.26953125 C-29.14849121 60.10905273 -28.80479492 58.94857422 -28.45068359 57.75292969 C-27.17998182 53.44838437 -25.92843563 49.1384666 -24.68261719 44.82666016 C-24.14063506 42.96087856 -23.5934618 41.09659679 -23.04101562 39.23388672 C-22.24802568 36.55683253 -21.47383315 33.87494762 -20.703125 31.19140625 C-20.45219086 30.358974 -20.20125671 29.52654175 -19.94271851 28.66888428 C-19.72233917 27.88837708 -19.50195984 27.10786987 -19.27490234 26.30371094 C-19.0750473 25.61976257 -18.87519226 24.93581421 -18.66928101 24.23114014 C-18.44207908 21.71449614 -19.21210941 20.40258505 -20.4921875 18.26953125 C-23.89134918 18.26953125 -24.48687659 18.73119489 -27.125 20.69140625 Z " fill="#0360FB" transform="translate(115.4921875,187.73046875)"/>
<path d="M0 0 C3.92031331 3.07333204 5.97743691 5.64900046 6.9609375 10.67578125 C6.9609375 11.99578125 6.9609375 13.31578125 6.9609375 14.67578125 C2.69477434 15.81342476 -0.60392561 16.67578125 -5.0390625 16.67578125 C-8.0390625 10.92578125 -8.0390625 10.92578125 -8.0390625 8.67578125 C-11.0916688 7.79250396 -13.86411427 7.51248055 -17.0390625 7.48828125 C-17.8846875 7.47410156 -18.7303125 7.45992187 -19.6015625 7.4453125 C-22.19314866 7.69035029 -23.80931242 8.36993224 -26.0390625 9.67578125 C-26.45687129 12.04883703 -26.45687129 12.04883703 -26.0390625 14.67578125 C-21.88692607 17.8805056 -17.21332589 18.81804638 -12.2265625 20.05078125 C-4.74697385 22.01562462 1.50563328 23.88609275 6.8984375 29.80078125 C9.24472736 33.94129277 9.43756963 38.03303122 8.9609375 42.67578125 C6.8677161 48.6065752 3.05378978 52.12935511 -2.5390625 54.92578125 C-11.42746515 57.59230204 -21.2127892 57.67434243 -30.0390625 54.67578125 C-34.33331007 52.32609862 -37.46751214 49.8664559 -40.0390625 45.67578125 C-40.63779439 42.97394069 -40.85082794 40.45224095 -41.0390625 37.67578125 C-39.79242919 37.16744534 -38.54156863 36.6694698 -37.2890625 36.17578125 C-36.59296875 35.89734375 -35.896875 35.61890625 -35.1796875 35.33203125 C-33.0390625 34.67578125 -33.0390625 34.67578125 -29.0390625 34.67578125 C-28.6678125 35.76890625 -28.2965625 36.86203125 -27.9140625 37.98828125 C-26.67266095 40.81432901 -26.03886345 41.67593175 -23.4765625 43.61328125 C-18.34621897 45.1990238 -12.89190378 45.75670208 -7.78125 43.8203125 C-5.75422024 42.76000314 -5.75422024 42.76000314 -5.2890625 40.05078125 C-5.2065625 39.26703125 -5.1240625 38.48328125 -5.0390625 37.67578125 C-7.88797191 35.31776713 -10.23874577 34.12630416 -13.8125 33.2109375 C-14.72 32.96794922 -15.6275 32.72496094 -16.5625 32.47460938 C-18.45527273 31.98585916 -20.34849957 31.49886402 -22.2421875 31.01367188 C-28.98627076 29.20346822 -33.63933884 27.3281074 -38.4140625 22.05078125 C-40.62032552 17.46854268 -40.70674177 13.67523337 -40.0390625 8.67578125 C-38.37057464 3.93376311 -36.28316636 1.35141194 -32.0390625 -1.32421875 C-21.96800677 -6.14260886 -9.48701658 -6.16110847 0 0 Z " fill="#020202" transform="translate(194.0390625,223.32421875)"/>
<path d="M0 0 C14.19 0 28.38 0 43 0 C43 15.57133271 43 15.57133271 38.83398438 20.00610352 C38.24939453 20.56096436 37.66480469 21.1158252 37.0625 21.6875 C35.86456058 22.93883721 34.66795334 24.19145105 33.47265625 25.4453125 C32.8811377 26.04375977 32.28961914 26.64220703 31.68017578 27.25878906 C29.28532186 29.74064 27.15600267 32.3702327 25 35.0625 C22.02887342 38.73578735 19.02570088 42.36915895 16 46 C29.86 46.495 29.86 46.495 44 47 C44 50.63 44 54.26 44 58 C29.15 58 14.3 58 -1 58 C-1 45 -1 45 0.87109375 41.7109375 C1.71800781 40.94007813 2.56492187 40.16921875 3.4375 39.375 C4.35144531 38.48683594 5.26539063 37.59867187 6.20703125 36.68359375 C7.12871094 35.79800781 8.05039062 34.91242188 9 34 C10.57162291 32.17115567 12.11445803 30.31710982 13.625 28.4375 C14.27726562 27.63183594 14.92953125 26.82617188 15.6015625 25.99609375 C19.06876788 21.66491048 22.53417174 17.33228533 26 13 C13.13 12.505 13.13 12.505 0 12 C0 8.04 0 4.08 0 0 Z " fill="#010101" transform="translate(441,220)"/>
<path d="M0 0 C4.29 0 8.58 0 13 0 C13 8.25 13 16.5 13 25 C14.32 23.02 15.64 21.04 17 19 C19.46019882 16.14616937 21.40879349 15.1696916 25.234375 14.76171875 C31.42853384 14.57897183 35.05208226 15.16283931 40 19 C43.80779144 24.96553992 44.12532487 30.54345881 44.09765625 37.48828125 C44.0962413 38.19147995 44.09482635 38.89467865 44.09336853 39.6191864 C44.08780109 41.85033544 44.07525475 44.08138164 44.0625 46.3125 C44.05748079 47.83137875 44.05291862 49.35025909 44.04882812 50.86914062 C44.03784236 54.57946012 44.02060034 58.28972001 44 62 C39.71 62 35.42 62 31 62 C30.92652344 59.30650391 30.92652344 59.30650391 30.8515625 56.55859375 C30.77650439 54.18488116 30.70095789 51.81118397 30.625 49.4375 C30.5940625 48.25607422 30.563125 47.07464844 30.53125 45.85742188 C30.29789826 37.22971726 30.29789826 37.22971726 28 29 C25.18291805 26.68462405 25.18291805 26.68462405 22 27.1875 C18.86504989 28.03654899 17.81195077 28.37267138 16 31 C14.41843984 35.11058861 13.72179718 38.66189112 13.5859375 43.0546875 C13.52792969 44.71757812 13.52792969 44.71757812 13.46875 46.4140625 C13.42234375 48.12722656 13.42234375 48.12722656 13.375 49.875 C13.31699219 51.62296875 13.31699219 51.62296875 13.2578125 53.40625 C13.16389994 56.27058297 13.0808765 59.13526931 13 62 C8.71 62 4.42 62 0 62 C0 41.54 0 21.08 0 0 Z " fill="#010101" transform="translate(260,216)"/>
<path d="M0 0 C5.65073968 3.72998387 9.07906537 8.68018047 10.78125 15.17578125 C11.63727266 23.57674785 11.52478733 31.92722982 6.78125 39.17578125 C1.25724834 45.0419777 -4.7246201 46.75965811 -12.59375 47.48828125 C-19.47867932 46.89475286 -26.34124617 45.34019707 -31.21875 40.17578125 C-36.69487231 32.20373924 -36.94872571 24.65503719 -36.21875 15.17578125 C-34.78530251 9.19156974 -31.87978884 5.26351734 -27.1953125 1.3671875 C-19.5295191 -3.25349825 -8.18061832 -3.6570137 0 0 Z M-19.59375 10.80078125 C-23.38706727 16.34486034 -23.50475571 21.0986524 -22.76953125 27.609375 C-22.0483556 30.96974664 -20.74910651 32.87545715 -18.21875 35.17578125 C-15.01392724 36.77819263 -11.69620751 36.65876146 -8.21875 36.17578125 C-5.11121717 34.13135176 -4.32083315 32.42369748 -2.90625 28.98828125 C-1.85365016 23.15113666 -1.87776361 17.79611393 -5.15625 12.67578125 C-6.97278019 10.12987527 -6.97278019 10.12987527 -9.21875 9.17578125 C-14.76040612 8.59490713 -14.76040612 8.59490713 -19.59375 10.80078125 Z " fill="#010101" transform="translate(400.21875,232.82421875)"/>
<path d="M0 0 C5.04960591 3.61393364 7.43060137 8.18307422 8.4765625 14.22265625 C9.30997324 23.48822267 9.07620532 30.95113079 2.9921875 38.42578125 C-1.83332312 43.25129187 -8.23489429 45.50336768 -15.0078125 45.80078125 C-22.18937668 45.45812212 -28.34213138 43.02795388 -33.5703125 38.078125 C-38.90650916 31.94439894 -39.35629441 23.56210156 -38.828125 15.77734375 C-37.88347262 9.51179222 -35.65876272 4.78541925 -31.0078125 0.42578125 C-21.99833847 -6.12319987 -9.32657933 -5.42776338 0 0 Z M-22.5078125 9.80078125 C-25.65432583 15.30717958 -25.47596353 20.1344884 -25.0078125 26.42578125 C-23.48287907 30.63750215 -22.72801939 31.94564333 -19.0078125 34.42578125 C-13.03804729 35.14174916 -13.03804729 35.14174916 -8.0703125 32.11328125 C-4.33482619 27.24582939 -4.48276452 22.33947955 -5.0078125 16.42578125 C-6.42452818 12.71533541 -7.9346398 9.94607008 -11.0078125 7.42578125 C-15.63238057 6.40377726 -19.03364536 6.50032247 -22.5078125 9.80078125 Z " fill="#010101" transform="translate(350.0078125,234.57421875)"/>
<path d="M0 0 C4.43727803 2.68085548 8.22605339 5.81319593 10 10.8125 C10 12.1325 10 13.4525 10 14.8125 C8.5882217 15.34644179 7.17029756 15.86415104 5.75 16.375 C4.96109375 16.66503906 4.1721875 16.95507812 3.359375 17.25390625 C0.77188453 17.86650747 -0.55909581 17.83940022 -3 16.8125 C-4.125 14.3125 -4.125 14.3125 -5 11.8125 C-8.09173752 10.26663124 -10.59429552 10.51890479 -14 10.8125 C-16.90717073 13.03113029 -17.83981643 14.33194929 -19 17.8125 C-19.39261056 23.62861456 -19.66170752 29.48908495 -17 34.8125 C-14.23952457 35.73265848 -12.36637731 36.00517245 -9.5 36.0625 C-8.7265625 36.08828125 -7.953125 36.1140625 -7.15625 36.140625 C-4.39773813 35.72085145 -3.66017534 35.03250191 -2 32.8125 C-1.34 31.1625 -0.68 29.5125 0 27.8125 C5.94 28.8025 5.94 28.8025 12 29.8125 C10.88772583 36.15246276 9.2066684 40.76286902 4 44.8125 C-3.32934654 48.26881392 -10.77825908 48.89654134 -18.5625 46.6875 C-24.58045839 44.46324595 -28.62545269 41.14923042 -31.875 35.625 C-34.64226218 26.24705593 -34.95630156 17.30277432 -30.25 8.5625 C-22.68790961 -0.68005492 -11.62324837 -4.50592888 0 0 Z " fill="#010101" transform="translate(242,232.1875)"/>
<path d="M0 0 C4.29 0 8.58 0 13 0 C13 20.46 13 40.92 13 62 C8.71 62 4.42 62 0 62 C0 41.54 0 21.08 0 0 Z " fill="#010101" transform="translate(419,216)"/>
<path d="M0 0 C0.33 0 0.66 0 1 0 C1 2.64 1 5.28 1 8 C0.34 8 -0.32 8 -1 8 C-1.04898438 8.75925781 -1.09796875 9.51851562 -1.1484375 10.30078125 C-1.22320312 11.29464844 -1.29796875 12.28851563 -1.375 13.3125 C-1.44460937 14.29863281 -1.51421875 15.28476563 -1.5859375 16.30078125 C-2 19 -2 19 -4 22 C-4.58736335 24.54617798 -5.1061907 27.05614767 -5.5625 29.625 C-6.87670261 36.87670261 -6.87670261 36.87670261 -8 38 C-1.73 38.33 4.54 38.66 11 39 C11.33 39.66 11.66 40.32 12 41 C0.615 40.505 0.615 40.505 -11 40 C-7.37 26.8 -3.74 13.6 0 0 Z " fill="#185FDC" transform="translate(96,210)"/>
<path d="M0 0 C2.97 0.495 2.97 0.495 6 1 C5.01 2.485 5.01 2.485 4 4 C4 4.99 4 5.98 4 7 C7.27315509 8.63657754 10.90622231 8.2430807 14.5078125 8.31640625 C15.34843231 8.33718735 16.18905212 8.35796844 17.05514526 8.37937927 C19.74501235 8.44485439 22.43497843 8.5037502 25.125 8.5625 C26.94662489 8.60568716 28.76823971 8.64930152 30.58984375 8.69335938 C35.05979394 8.80053368 39.52984386 8.90180685 44 9 C41.6870518 11.3129482 40.52095125 11.49580975 37.375 12.125 C36.55773437 12.29257813 35.74046875 12.46015625 34.8984375 12.6328125 C34.27195313 12.75398437 33.64546875 12.87515625 33 13 C33.66 12.67 34.32 12.34 35 12 C35 11.34 35 10.68 35 10 C34.0713916 10.00523682 33.1427832 10.01047363 32.18603516 10.01586914 C28.74576195 10.03289593 25.30553341 10.04544273 21.86523438 10.05493164 C20.37531834 10.05996514 18.88540726 10.06679242 17.39550781 10.07543945 C15.25584696 10.08754805 13.11625132 10.09323807 10.9765625 10.09765625 C9.68830566 10.10289307 8.40004883 10.10812988 7.07275391 10.11352539 C4 10 4 10 2 9 C2 7.35 2 5.7 2 4 C1.34 4 0.68 4 0 4 C0 2.68 0 1.36 0 0 Z " fill="#0F5EE6" transform="translate(36,241)"/>
<path d="M0 0 C0.66 0.33 1.32 0.66 2 1 C-0.81783727 5.07020938 -2.23109047 6.12151667 -7 7 C-8.1500831 8.96672915 -8.1500831 8.96672915 -9 11 C-9.99 11.33 -10.98 11.66 -12 12 C-12.33 12.66 -12.66 13.32 -13 14 C-13.61875 14.12375 -14.2375 14.2475 -14.875 14.375 C-17.17892901 14.80992956 -17.17892901 14.80992956 -18.375 17 C-20 19 -20 19 -23.1875 19.75 C-24.5796875 19.87375 -24.5796875 19.87375 -26 20 C-21.91096844 15.59392623 -17.37829988 12.27630601 -12.4375 8.875 C-10.93588517 7.83117893 -9.43457316 6.78692207 -7.93359375 5.7421875 C-6.9444397 5.05938721 -6.9444397 5.05938721 -5.93530273 4.36279297 C-3.92571595 2.94769099 -1.95917708 1.4839028 0 0 Z " fill="#1763D9" transform="translate(88,270)"/>
<path d="M0 0 C0 0.66 0 1.32 0 2 C-5.120532 5.840399 -5.120532 5.840399 -8.06640625 6.375 C-10.15128119 6.82598038 -10.15128119 6.82598038 -11.16796875 8.77734375 C-11.50441406 9.49019531 -11.84085938 10.20304688 -12.1875 10.9375 C-13.70500621 13.60506596 -14.45907397 14.77324818 -17.3203125 15.97265625 C-19.55304609 16.44509988 -21.72736338 16.80194888 -24 17 C-19.49919822 10.77830342 -8.24526876 0 0 0 Z " fill="#125FE9" transform="translate(44,182)"/>
<path d="M0 0 C0.33 0.66 0.66 1.32 1 2 C1.99 2.33 2.98 2.66 4 3 C4 5.97 4 8.94 4 12 C4.99 11.67 5.98 11.34 7 11 C7.06058594 11.60328125 7.12117187 12.2065625 7.18359375 12.828125 C7.26738281 13.62734375 7.35117188 14.4265625 7.4375 15.25 C7.55931641 16.43335938 7.55931641 16.43335938 7.68359375 17.640625 C7.97634993 19.82364639 8.42064419 21.8773182 9 24 C3.43263526 19.36052938 1.05027676 10.16473811 0.1875 3.1875 C0.125625 2.135625 0.06375 1.08375 0 0 Z " fill="#155EE4" transform="translate(1,263)"/>
<path d="M0 0 C1.65 0 3.3 0 5 0 C2.30851499 3.45036236 -1.36413452 4.40603622 -5.375 5.6875 C-6.035 5.91244141 -6.695 6.13738281 -7.375 6.36914062 C-11.01696802 7.56257437 -14.16548901 8.27389364 -18 8 C-18 7.34 -18 6.68 -18 6 C-13.46298506 4.54815522 -9.81938524 3.76490804 -5 4 C-5 3.34 -5 2.68 -5 2 C-3.35 1.67 -1.7 1.34 0 1 C0 0.67 0 0.34 0 0 Z " fill="#1961DD" transform="translate(104,315)"/>
<path d="M0 0 C0.99 0.33 1.98 0.66 3 1 C3.66666667 2.66666667 4.33333333 4.33333333 5 6 C5.99 6.33 6.98 6.66 8 7 C8 7.66 8 8.32 8 9 C9.65 8.67 11.3 8.34 13 8 C13 11.10551666 12.4606285 12.35261084 11 15 C6.62294157 10.26638344 2.9826263 5.7266425 0 0 Z " fill="#135DE1" transform="translate(10,288)"/>
<path d="M0 0 C1.65 0 3.3 0 5 0 C1.29939798 3.92488093 -2.4906925 7.02215543 -7 10 C-7.66 10 -8.32 10 -9 10 C-9 9.01 -9 8.02 -9 7 C-6.69 6.34 -4.38 5.68 -2 5 C-2 4.01 -2 3.02 -2 2 C-1.34 2 -0.68 2 0 2 C0 1.34 0 0.68 0 0 Z " fill="#175BD9" transform="translate(67,220)"/>
<path d="M0 0 C5 6.36363636 5 6.36363636 5 11 C4.34 11 3.68 11 3 11 C3 10.34 3 9.68 3 9 C2.01 9.33 1.02 9.66 0 10 C-0.95024979 6.30458414 -0.95024979 3.69541586 0 0 Z " fill="#135FE2" transform="translate(138,213)"/>
<path d="M0 0 C0.66 0.99 1.32 1.98 2 3 C1.04882866 4.1725131 0.08882991 5.33787015 -0.875 6.5 C-1.40867187 7.1496875 -1.94234375 7.799375 -2.4921875 8.46875 C-2.98976563 8.9740625 -3.48734375 9.479375 -4 10 C-4.66 10 -5.32 10 -6 10 C-6 8.68 -6 7.36 -6 6 C-5.34 6 -4.68 6 -4 6 C-4 5.34 -4 4.68 -4 4 C-2.68 3.67 -1.36 3.34 0 3 C0 2.01 0 1.02 0 0 Z " fill="#115DE4" transform="translate(129,295)"/>
<path d="M0 0 C0.33 0.66 0.66 1.32 1 2 C0.67 2.99 0.34 3.98 0 5 C0.66 5.66 1.32 6.32 2 7 C-0.90600261 8.25664978 -2.79604584 9 -6 9 C-4.47291037 5.56404834 -2.40072955 2.88087546 0 0 Z " fill="#1661E1" transform="translate(19,199)"/>
<path d="M0 0 C0 0.66 0 1.32 0 2 C-3.93281242 5.0900669 -7.02125936 6.52583422 -12 7 C-9.20232475 3.70861735 -4.40323273 0 0 0 Z " fill="#2061DF" transform="translate(44,182)"/>
<path d="M0 0 C0.99 0.99 1.98 1.98 3 3 C1.515 5.475 1.515 5.475 0 8 C-0.33 7.01 -0.66 6.02 -1 5 C-1.66 5 -2.32 5 -3 5 C-1.125 1.125 -1.125 1.125 0 0 Z " fill="#075EED" transform="translate(132,289)"/>
<path d="M0 0 C0.556875 0.28875 1.11375 0.5775 1.6875 0.875 C4.01604463 2.07338209 4.01604463 2.07338209 6.6875 2.875 C9 4 9 4 9.8125 6.125 C9.874375 6.74375 9.93625 7.3625 10 8 C6.05205855 6.32971708 3.18203882 3.8204435 0 1 C0 0.67 0 0.34 0 0 Z " fill="#175DDF" transform="translate(22,303)"/>
<path d="M0 0 C2.64 0 5.28 0 8 0 C5.6870518 2.3129482 4.52095125 2.49580975 1.375 3.125 C0.55773437 3.29257813 -0.25953125 3.46015625 -1.1015625 3.6328125 C-2.04128906 3.81457031 -2.04128906 3.81457031 -3 4 C-2.34 3.67 -1.68 3.34 -1 3 C-0.67 2.01 -0.34 1.02 0 0 Z " fill="#1761CF" transform="translate(72,250)"/>
<path d="M0 0 C0.33 0 0.66 0 1 0 C1.33 2.97 1.66 5.94 2 9 C1.01 9.33 0.02 9.66 -1 10 C-1.125 3.375 -1.125 3.375 0 0 Z " fill="#1161E5" transform="translate(2,229)"/>
<path d="M0 0 C3.96 1.98 3.96 1.98 8 4 C8 4.33 8 4.66 8 5 C6.02 5 4.04 5 2 5 C2 4.01 2 3.02 2 2 C1.34 2 0.68 2 0 2 C0 1.34 0 0.68 0 0 Z " fill="#1160DF" transform="translate(106,183)"/>
<path d="M0 0 C0 0.99 0 1.98 0 3 C-0.5775 2.79375 -1.155 2.5875 -1.75 2.375 C-4.51967567 1.91338739 -5.64561267 2.57055055 -8 4 C-8 3.01 -8 2.02 -8 1 C-5.29120665 -0.35439668 -2.99066732 -0.06501451 0 0 Z " fill="#165CDB" transform="translate(96,205)"/>
</svg>
